<svg xmlns="http://www.w3.org/2000/svg" version="1.0" viewBox="0 0 600 600" preserveAspectRatio="xMidYMid meet">
<g xmlns="http://www.w3.org/2000/svg" transform="translate(0.000000,600.000000) scale(0.100000,-0.100000)" fill="#7f1171" stroke="none">
<path d="M2640 5519 c-171 -8 -268 -18 -430 -43 -52 -8 -126 -20 -165 -26 -38 -6 -83 -14 -100 -19 -16 -5 -66 -17 -110 -26 -128 -28 -337 -96 -460 -150 -16 -8 -52 -23 -80 -35 -27 -11 -63 -28 -80 -37 -16 -9 -37 -20 -45 -24 -178 -89 -437 -300 -540 -439 -76 -102 -135 -232 -167 -365 -33 -134 -18 -426 26 -530 68 -160 114 -229 231 -346 150 -150 389 -295 625 -379 33 -12 69 -26 80 -31 11 -5 52 -18 90 -29 39 -12 79 -25 90 -30 11 -4 70 -20 130 -35 186 -46 209 -51 405 -94 25 -5 86 -17 135 -26 50 -9 119 -22 155 -30 36 -7 108 -21 160 -30 52 -9 124 -23 160 -30 134 -27 225 -42 229 -39 5 5 9 893 4 920 -4 17 -16 22 -76 32 -40 6 -97 16 -127 22 -30 6 -80 16 -110 22 -121 23 -319 71 -385 92 -22 8 -58 19 -80 26 -170 51 -293 129 -335 211 -60 115 -43 306 34 397 113 133 281 221 521 271 96 20 361 43 458 40 53 -2 98 -2 98 1 4 18 7 702 3 730 l-5 35 -87 1 c-48 1 -161 -3 -252 -7z"/>
<path d="M223 2314 c-7 -20 14 -260 27 -299 5 -16 17 -57 27 -90 20 -71 98 -238 119 -255 8 -7 14 -17 14 -22 0 -15 109 -148 180 -218 56 -57 145 -131 247 -205 60 -45 207 -126 323 -178 77 -35 116 -52 180 -75 124 -47 197 -72 235 -81 22 -6 67 -17 100 -26 33 -9 114 -27 180 -41 66 -13 140 -28 165 -34 45 -10 110 -19 290 -39 52 -6 129 -16 170 -21 41 -5 169 -13 283 -16 172 -6 210 -5 217 7 9 14 12 682 3 730 l-4 27 -132 6 c-201 10 -489 62 -592 106 -11 5 -31 12 -45 15 -69 18 -277 126 -305 159 -5 6 -22 19 -37 28 -21 14 -95 95 -158 175 -9 11 -41 78 -61 128 -16 39 -32 111 -38 170 l-6 60 -688 3 c-618 2 -688 1 -694 -14z"/>
</g>
<g transform="translate(0.000000,600.000000) scale(0.100000,-0.100000)" fill="#d80000" stroke="none">
<path d="M2997 5263 c-4 -3 -7 -177 -7 -385 0 -294 3 -380 13 -383 6 -3 95 -14 197 -25 217 -24 261 -32 395 -73 190 -59 339 -154 425 -271 70 -94 96 -154 110 -249 5 -32 14 -65 21 -73 10 -12 114 -14 696 -14 624 0 684 1 690 16 6 17 -8 164 -26 259 -19 106 -85 252 -175 386 -37 55 -229 248 -281 282 -22 15 -60 41 -85 58 -68 49 -254 148 -365 194 -22 9 -49 20 -60 25 -11 5 -49 19 -85 31 -36 11 -79 27 -97 35 -17 8 -36 14 -43 14 -6 0 -52 12 -103 27 -51 14 -112 29 -137 34 -25 4 -81 14 -125 22 -173 33 -321 54 -490 68 -66 5 -169 14 -230 19 -129 11 -229 13 -238 3z"/>
<path d="M2996 3385 c-3 -9 -6 -221 -6 -471 0 -355 3 -455 13 -458 6 -2 57 -12 112 -21 163 -27 386 -72 430 -87 17 -5 50 -13 75 -18 68 -13 131 -30 167 -46 17 -8 38 -14 46 -14 23 0 184 -67 270 -113 254 -135 330 -336 212 -564 -9 -18 -42 -55 -73 -83 -59 -53 -193 -140 -215 -140 -7 0 -21 -6 -32 -13 -31 -21 -185 -69 -295 -91 -161 -32 -401 -54 -601 -55 -79 -1 -98 -4 -103 -17 -9 -25 -7 -727 3 -743 7 -11 48 -12 222 -7 293 9 519 27 734 61 50 8 118 18 153 24 34 5 77 14 95 19 17 6 68 18 112 27 44 9 98 23 120 30 22 7 67 21 100 30 86 24 178 57 189 67 6 4 18 8 27 8 9 0 43 13 75 29 33 16 70 32 84 36 14 4 30 11 35 15 9 6 75 43 175 97 14 7 50 31 80 53 30 22 71 51 90 64 72 50 232 219 285 301 148 229 203 454 177 726 -12 126 -52 268 -96 337 -14 23 -26 44 -26 47 0 4 -14 25 -32 48 -92 120 -259 267 -406 359 -63 39 -161 95 -182 104 -8 4 -43 19 -78 35 -34 16 -68 29 -75 29 -7 0 -17 4 -23 8 -9 8 -70 32 -184 72 -75 26 -129 41 -325 88 -22 6 -83 18 -135 27 -52 9 -113 21 -135 27 -22 6 -69 14 -105 19 -111 14 -249 37 -260 44 -5 3 -40 10 -78 15 -87 11 -254 40 -263 46 -4 2 -38 9 -76 14 -84 11 -221 36 -249 45 -15 5 -23 2 -28 -10z"/>
</g>
</svg>
